
<svg width="1920" height="960" viewBox="0 0 1920 960" fill="none" xmlns="http://www.w3.org/2000/svg">
<g clip-path="url(#clip0_108_95)">
<path d="M831.003 384.559L1117.48 409.53L1066.97 551.146L780.49 526.175L831.003 384.559ZM830.547 384.237L779.838 526.401L1067.42 551.468L1118.13 409.304L830.547 384.237Z" fill="url(#paint0_linear_108_95)"/>
<path d="M834.702 370.024L1146.92 411.38L1063.25 565.718L751.042 524.362L834.702 370.024ZM834.265 369.647L750.279 524.578L1063.69 566.095L1147.68 411.164L834.265 369.647Z" fill="url(#paint1_linear_108_95)"/>
<path d="M841.678 354.098L1179.14 414.81L1056.32 581.629L718.862 520.917L841.678 354.098ZM841.267 353.648L717.951 521.12L1056.73 582.079L1180.05 414.607L841.267 353.648Z" fill="url(#paint2_linear_108_95)"/>
<path d="M852.498 336.793L1214.14 420.159L1045.5 598.934L683.856 515.568L852.498 336.793ZM852.107 336.288L682.798 515.758L1045.85 599.454L1215.16 419.984L852.107 336.288Z" fill="url(#paint3_linear_108_95)"/>
<path d="M867.864 318.172L1251.85 427.758L1030.17 617.577L646.179 507.99L867.864 318.172ZM867.542 317.579L644.986 508.131L1030.46 618.149L1253.01 427.596L867.542 317.579Z" fill="url(#paint4_linear_108_95)"/>
<path d="M888.522 298.278L1292.06 437.967L1009.48 637.449L605.943 497.76L888.522 298.278ZM888.263 297.615L604.609 497.87L1009.71 638.09L1293.36 437.836L888.263 297.615Z" fill="url(#paint5_linear_108_95)"/>
<path d="M915.257 277.258L1334.58 451.183L982.743 658.47L563.42 484.544L915.257 277.258ZM915.142 276.513L561.914 484.601L982.859 659.214L1336.09 451.126L915.142 276.513Z" fill="url(#paint6_linear_108_95)"/>
<path d="M949.005 255.266L1379.07 467.866L948.995 680.461L518.934 467.861L949.005 255.266ZM948.997 254.437L517.263 467.847L948.973 681.269L1380.71 467.859L948.997 254.437Z" fill="url(#paint7_linear_108_95)"/>
<path d="M990.632 232.55L1425.02 488.444L907.369 703.178L472.98 447.284L990.632 232.55ZM990.803 231.642L471.143 447.199L907.197 704.085L1426.86 488.528L990.803 231.642Z" fill="url(#paint8_linear_108_95)"/>
<path d="M1041.18 209.386L1471.88 513.431L856.785 726.338L426.129 422.278L1041.18 209.386ZM1041.54 208.382L424.097 422.101L856.426 727.342L1473.91 513.608L1041.54 208.382Z" fill="url(#paint9_linear_108_95)"/>
<path d="M1101.69 186.169L1518.85 543.343L796.319 749.54L379.155 392.385L1101.69 186.169ZM1102.26 185.089L376.971 392.1L795.737 750.638L1521.03 543.627L1102.26 185.089Z" fill="url(#paint10_linear_108_95)"/>
<path d="M1173.17 163.38L1564.94 578.696L724.796 772.344L333.061 357.032L1173.17 163.38ZM1174.05 162.195L330.658 356.615L723.916 773.529L1567.3 579.128L1174.05 162.195Z" fill="url(#paint11_linear_108_95)"/>
<path d="M1256.79 141.575L1609.06 620.016L641.209 794.153L288.944 315.712L1256.79 141.575ZM1257.97 140.302L286.378 315.111L639.995 795.422L1611.62 620.616L1257.97 140.302Z" fill="url(#paint12_linear_108_95)"/>
<path d="M1353.61 121.428L1649.81 667.879L544.387 814.3L248.189 267.849L1353.61 121.428ZM1355.2 120.078L245.459 267.065L542.807 815.631L1652.51 668.641L1355.2 120.078Z" fill="url(#paint13_linear_108_95)"/>
<path d="M1464.71 103.768L1685.53 722.816L433.253 831.956L212.472 212.911L1464.71 103.768ZM1466.74 102.363L209.623 211.929L431.302 833.368L1688.42 723.784L1466.74 102.363Z" fill="url(#paint14_linear_108_95)"/>
<path d="M1591.19 89.5401L1714.32 785.304L306.851 846.172L183.683 150.405L1591.19 89.5401ZM1593.66 88.0789L180.727 149.187L304.344 847.649L1717.27 786.54L1593.66 88.0789Z" fill="url(#paint15_linear_108_95)"/>
<path d="M1733.93 79.8357L1733.91 855.878L164.043 855.87L164.052 79.8461L1733.93 79.8357ZM1736.97 78.3498L161.046 78.3412L161.029 857.378L1736.95 857.386L1736.97 78.3498Z" fill="url(#paint16_linear_108_95)"/>
<path d="M1893.83 75.9399L1741.79 934.922L4.17899 859.769L156.171 0.801434L1893.83 75.9399ZM1897.49 74.4324L153.122 -1.00856L0.511009 861.295L1744.88 936.736L1897.49 74.4324Z" fill="url(#paint17_linear_108_95)"/>
<path d="M2071.6 79.2893L1735.05 1022.81L-173.6 856.438L162.947 -87.0781L2071.6 79.2893ZM2075.95 77.7849L159.904 -89.2265L-177.946 857.942L1738.1 1024.95L2075.95 77.7849Z" fill="url(#paint18_linear_108_95)"/>
</g>
<defs>
<linearGradient id="paint0_linear_108_95" x1="923.648" y1="538.944" x2="936.329" y2="393.46" gradientUnits="userSpaceOnUse">
<stop stop-color="#5BC5CC"/>
<stop offset="0.9732" stop-color="#482F70"/>
</linearGradient>
<linearGradient id="paint1_linear_108_95" x1="906.979" y1="545.308" x2="928.572" y2="382.159" gradientUnits="userSpaceOnUse">
<stop stop-color="#5BC5CC"/>
<stop offset="0.9732" stop-color="#482F70"/>
</linearGradient>
<linearGradient id="paint2_linear_108_95" x1="887.354" y1="551.609" x2="920.422" y2="367.879" gradientUnits="userSpaceOnUse">
<stop stop-color="#5BC5CC"/>
<stop offset="0.9732" stop-color="#482F70"/>
</linearGradient>
<linearGradient id="paint3_linear_108_95" x1="864.373" y1="557.603" x2="912.206" y2="350.107" gradientUnits="userSpaceOnUse">
<stop stop-color="#5BC5CC"/>
<stop offset="0.9732" stop-color="#482F70"/>
</linearGradient>
<linearGradient id="paint4_linear_108_95" x1="837.76" y1="563.117" x2="904.775" y2="328.191" gradientUnits="userSpaceOnUse">
<stop stop-color="#5BC5CC"/>
<stop offset="0.9732" stop-color="#482F70"/>
</linearGradient>
<linearGradient id="paint5_linear_108_95" x1="807.2" y1="567.983" x2="899.427" y2="301.462" gradientUnits="userSpaceOnUse">
<stop stop-color="#5BC5CC"/>
<stop offset="0.9732" stop-color="#482F70"/>
</linearGradient>
<linearGradient id="paint6_linear_108_95" x1="772.405" y1="571.898" x2="897.88" y2="269.362" gradientUnits="userSpaceOnUse">
<stop stop-color="#5BC5CC"/>
<stop offset="0.9732" stop-color="#482F70"/>
</linearGradient>
<linearGradient id="paint7_linear_108_95" x1="733.175" y1="574.576" x2="902.735" y2="231.529" gradientUnits="userSpaceOnUse">
<stop stop-color="#5BC5CC"/>
<stop offset="0.9732" stop-color="#482F70"/>
</linearGradient>
<linearGradient id="paint8_linear_108_95" x1="689.162" y1="575.629" x2="917.289" y2="188.358" gradientUnits="userSpaceOnUse">
<stop stop-color="#5BC5CC"/>
<stop offset="0.9732" stop-color="#482F70"/>
</linearGradient>
<linearGradient id="paint9_linear_108_95" x1="640.237" y1="574.696" x2="946.26" y2="141.227" gradientUnits="userSpaceOnUse">
<stop stop-color="#5BC5CC"/>
<stop offset="0.9732" stop-color="#482F70"/>
</linearGradient>
<linearGradient id="paint10_linear_108_95" x1="586.337" y1="571.386" x2="995.497" y2="93.5837" gradientUnits="userSpaceOnUse">
<stop stop-color="#5BC5CC"/>
<stop offset="0.9732" stop-color="#482F70"/>
</linearGradient>
<linearGradient id="paint11_linear_108_95" x1="527.267" y1="565.065" x2="1070.64" y2="52.5971" gradientUnits="userSpaceOnUse">
<stop stop-color="#5BC5CC"/>
<stop offset="0.9732" stop-color="#482F70"/>
</linearGradient>
<linearGradient id="paint12_linear_108_95" x1="463.179" y1="555.249" x2="1176.63" y2="29.9388" gradientUnits="userSpaceOnUse">
<stop stop-color="#5BC5CC"/>
<stop offset="0.9732" stop-color="#482F70"/>
</linearGradient>
<linearGradient id="paint13_linear_108_95" x1="394.184" y1="541.376" x2="1313.48" y2="42.9824" gradientUnits="userSpaceOnUse">
<stop stop-color="#5BC5CC"/>
<stop offset="0.9732" stop-color="#482F70"/>
</linearGradient>
<linearGradient id="paint14_linear_108_95" x1="320.448" y1="522.635" x2="1470.27" y2="112.458" gradientUnits="userSpaceOnUse">
<stop stop-color="#5BC5CC"/>
<stop offset="0.9732" stop-color="#482F70"/>
</linearGradient>
<linearGradient id="paint15_linear_108_95" x1="242.54" y1="498.437" x2="1623.13" y2="254.059" gradientUnits="userSpaceOnUse">
<stop stop-color="#5BC5CC"/>
<stop offset="0.9732" stop-color="#482F70"/>
</linearGradient>
<linearGradient id="paint16_linear_108_95" x1="161.074" y1="467.869" x2="1737.03" y2="467.698" gradientUnits="userSpaceOnUse">
<stop stop-color="#5BC5CC"/>
<stop offset="0.9732" stop-color="#482F70"/>
</linearGradient>
<linearGradient id="paint17_linear_108_95" x1="76.7688" y1="430.149" x2="1781.1" y2="731.948" gradientUnits="userSpaceOnUse">
<stop stop-color="#5BC5CC"/>
<stop offset="0.9732" stop-color="#482F70"/>
</linearGradient>
<linearGradient id="paint18_linear_108_95" x1="-9.02087" y1="384.356" x2="1743.6" y2="1009.51" gradientUnits="userSpaceOnUse">
<stop stop-color="#5BC5CC"/>
<stop offset="0.9732" stop-color="#482F70"/>
</linearGradient>
<clipPath id="clip0_108_95">
<rect width="1919.75" height="1003.76" fill="white" transform="matrix(0.996223 0.0868355 -0.335962 0.941876 161.364 -88.1952)"/>
</clipPath>
</defs>
</svg>